<?xml version="1.0" encoding="utf-8"?>
<!-- Generator: Adobe Illustrator 22.1.0, SVG Export Plug-In . SVG Version: 6.00 Build 0)  -->
<svg version="1.1" id="Ebene_1" xmlns="http://www.w3.org/2000/svg" xmlns:xlink="http://www.w3.org/1999/xlink" x="0px" y="0px"
	 viewBox="0 0 106 28" style="enable-background:new 0 0 106 28;" xml:space="preserve">
<g>
	<path d="M62.9000015,12h2.8000031v10h-2.7999992v-1.2999992c-1,1.5-2.2999992,1.6000004-3.0999985,1.6000004
		c-3.0999985,0-5.0999985-2.3999996-5.0999985-5.3000011c0-3,2-5.3000002,4.9000015-5.3000002
		c0.7999992,0,2.2999992,0.1000004,3.2000008,1.6000004L62.9000015,12L62.9000015,12z M57.7000008,17
		c0,1.6000004,1.0999985,2.7999992,2.7999992,2.7999992c1.5999985,0,2.7999992-1.2000008,2.7999992-2.7999992
		c0-1.6000004-1.0999985-2.8000002-2.7999992-2.8000002C58.9000015,14.1999998,57.7000008,15.3999996,57.7000008,17z"/>
	<path d="M71.1999969,14.3999996V22h-2.8000031v-7.6000004h-1.0999985V12h1.0999985V8.6000004h2.8000031V12h1.9000015v2.3999996
		H71.1999969z"/>
	<path d="M79.6999969,14.3999996C79,13.7999992,78.3999939,13.6999998,78.0999985,13.6999998C77.4000015,13.6999998,77,14,77,14.5
		c0,0.3000002,0.0999985,0.6000004,0.9000015,0.8999996l0.6999969,0.1999998c0.8000031,0.3000002,2,0.5999994,2.5,1.4000006
		c0.3000031,0.3999996,0.5,1,0.5,1.7000008c0,0.8999996-0.3000031,1.7999992-1.0999985,2.5
		c-0.8000031,0.7000008-1.8000031,1.1000004-3,1.1000004c-2.0999985,0-3.1999969-1-3.9000015-1.7000008l1.5-1.7000008
		C75.6999969,19.5,76.5,20.1000004,77.2999954,20.1000004c0.8000031,0,1.4000015-0.3999996,1.4000015-1.1000004
		c0-0.6000004-0.5-0.8999996-0.9000015-1l-0.5999985-0.2000008C76.5,17.5,75.6999969,17.1999989,75.0999985,16.5999985
		c-0.5-0.5-0.8000031-1.1000004-0.8000031-1.8999996c0-1,0.5-1.8000002,1-2.3000002
		c0.8000031-0.6000004,1.8000031-0.6999998,2.5999985-0.6999998c0.6999969,0,1.9000015,0.1000004,3.1999969,1.1000004
		L79.6999969,14.3999996z"/>
	<path d="M85.8000031,13.3000002c1-1.3999996,2.4000015-1.6000004,3.1999969-1.6000004
		C91.9000015,11.6999998,93.9000015,14,93.9000015,17s-2,5.2999992-5,5.2999992
		c-0.5999985,0-2.0999985-0.1000004-3.1999969-1.6000004V22H83V5.1999998h2.8000031V13.3000002z M85.5,17
		c0,1.6000004,1.0999985,2.7999992,2.8000031,2.7999992c1.5999985,0,2.8000031-1.2000008,2.8000031-2.7999992
		c0-1.6000004-1.0999985-2.8000002-2.8000031-2.8000002S85.5,15.3999996,85.5,17z"/>
	<path d="M98.5,20.5L93.6999969,12H97l3.0999985,5.7000008l2.8000031-5.6999998h3.1999969l-8,15.3000002h-3.1999969L98.5,20.5z"/>
	<path d="M54,13.6999998h-2.7999992H47V16.5h3.7000008c-0.5999985,1.8999996-2,3.2000008-4.5999985,3.2000008
		c-2.9000015,0-5-2.3999996-5-5.3000002S43.0999985,9,46,9c1.5999985,0,3.2000008,0.8000002,4.2000008,2.1000004l2.2999992-1.5
		C51,7.5,48.5999985,6.3000002,46,6.3000002c-4.4000015,0-8,3.5999994-8,8.1000004S41.4000015,22.5,46,22.5s8-3.6000004,8-8.1000004
		C54.0999985,14.1000004,54,13.8999996,54,13.6999998z"/>
</g>
<g>
	<path d="M14,0C6.3000002,0,0,6.3000002,0,14s6.3000002,14,14,14s14-6.2999992,14-14S21.7000008,0,14,0z M6.1999998,21.7999992
		C4.0999999,19.7000008,3,16.8999996,3,14.1999998L13.8999996,25C11.1000004,24.8999996,8.3000002,23.8999996,6.1999998,21.7999992z
		 M16.3999996,24.7000008L3.3,11.6000004C4.4000001,6.6999998,8.8000002,3,14,3c3.7000008,0,6.8999996,1.8000002,8.8999996,4.5
		l-1.5,1.3000002C19.7000008,6.5,17,5,14,5c-3.8999996,0-7.1999998,2.5-8.5,6L17,22.5c2.8999996-1,5.1000004-3.5,5.7999992-6.5H18
		v-2h7C25,19.2000008,21.2999992,23.6000004,16.3999996,24.7000008z"/>
</g>
</svg>
