<svg height="512pt" viewBox="0 0 512 512" width="512pt" xmlns="http://www.w3.org/2000/svg"><path d="m256 0c-141.363281 0-256 114.636719-256 256s114.636719 256 256 256 256-114.636719 256-256-114.636719-256-256-256zm153.316406 338.65625c-1.84375 4.296875-10.132812 10.402344-39.125 14.878906-2.375.363282-3.292968 3.453125-4.707031 9.925782-.515625 2.355468-1.035156 4.671874-1.75 7.105468-.617187 2.109375-1.933594 3.097656-4.148437 3.097656h-.359376c-1.539062 0-3.71875-.277343-6.488281-.820312-4.910156-.957031-10.414062-1.839844-17.417969-1.839844-4.089843 0-8.320312.351563-12.574218 1.054688-8.699219 1.453125-16.085938 6.664062-23.90625 12.195312-11.363282 8.039063-23.09375 16.332032-41.378906 16.332032-.796876 0-1.574219-.027344-2.359376-.0625-.5.042968-1.019531.0625-1.539062.0625-18.277344 0-30.007812-8.289063-41.351562-16.316407-7.832032-5.53125-15.226563-10.757812-23.9375-12.210937-4.25-.703125-8.480469-1.054688-12.5625-1.054688-7.371094 0-13.175782 1.136719-17.421876 1.964844-2.574218.503906-4.800781.9375-6.492187.9375-1.765625 0-3.675781-.382812-4.507813-3.222656-.722656-2.464844-1.242187-4.84375-1.75-7.15625-1.296874-5.929688-2.214843-9.578125-4.699218-9.960938-28.988282-4.476562-37.289063-10.585937-39.136719-14.917968-.257813-.617188-.414063-1.242188-.445313-1.851563-.09375-1.667969 1.082032-3.140625 2.730469-3.40625 44.558594-7.335937 64.542969-52.886719 65.375-54.820313.019531-.046874.042969-.101562.070313-.152343 2.726562-5.527344 3.257812-10.328125 1.59375-14.261719-3.058594-7.203125-13.035156-10.371094-19.636719-12.464844-1.613281-.515625-3.144531-.996094-4.355469-1.476562-13.175781-5.207032-14.269531-10.550782-13.75-13.273438.882813-4.644531 7.085938-7.882812 12.105469-7.882812 1.371094 0 2.582031.246094 3.601563.722656 5.929687 2.773438 11.269531 4.183594 15.882812 4.183594 6.367188 0 9.148438-2.675782 9.488281-3.027344-.167969-3.015625-.367187-6.167969-.570312-9.421875-1.328125-21.0625-2.976563-47.246094 3.695312-62.1875 19.976563-44.789063 62.335938-48.273437 74.847657-48.273437.320312 0 5.484374-.054688 5.484374-.054688h.738282c12.535156 0 54.996094 3.484375 74.980468 48.300781 6.667969 14.949219 5.019532 41.152344 3.691407 62.203125l-.058594.917969c-.183594 2.929687-.363281 5.777344-.511719 8.507813.320313.328124 2.878906 2.785156 8.648438 3.007812h.003906c4.394531-.167969 9.433594-1.570312 14.96875-4.15625 1.617188-.761719 3.421875-.921875 4.644531-.921875 1.878907 0 3.773438.367187 5.347657 1.019531l.101562.042969c4.472656 1.585937 7.40625 4.71875 7.46875 8 .058594 3.085937-2.300781 7.726563-13.855469 12.292969-1.199219.472656-2.730469.957031-4.355469 1.472656-6.609374 2.09375-16.578124 5.265625-19.636718 12.464844-1.667969 3.9375-1.136719 8.730468 1.59375 14.257812.023437.054688.050781.105469.074218.160156.828126 1.933594 20.789063 47.46875 65.375 54.816407 1.644532.269531 2.824219 1.742187 2.730469 3.402343-.035156.625-.1875 1.253907-.453125 1.867188zm0 0"/></svg>