<svg id="Layer_1" data-name="Layer 1" xmlns="http://www.w3.org/2000/svg" viewBox="0 0 702.61 113.88">
  <title>signature-black</title>
  <path d="M258.76,341.06c-2.41-3.22-4.47-5.78-6.25-8.51a2.79,2.79,0,0,1,.69-2.58,3.22,3.22,0,0,1,2.67-.33C260,331,261,334.21,258.76,341.06Z" transform="translate(-45.21 -249.32)"/>
  <path d="M228.19,270.37c3.45.18,5.91.41,8.37.42,13.48,0,27.06-.94,40.44.31,12.49,1.17,25.31,1.17,37.43,5.74,2.7,1,6.62.22,9.52-.92,14.9-5.83,29.64-12.07,44.46-18.11a80.54,80.54,0,0,1,10.73-3.8c2.26-.56,4.77-.11,7.75,1.32-1.13,1-2.1,2.38-3.42,2.89-16.6,6.37-33.27,12.57-49.89,18.92-1.95.75-3.65,2.13-6.07,3.58,4.05,2.73,7.28,4.66,10.23,6.95,7.3,5.67,7,12.2-.86,17.12a54.7,54.7,0,0,1-11,5.31c-7.44,2.59-15,4.71-22.44,8,8.75-1.2,17.57-2,26.22-3.73A149.85,149.85,0,0,1,358.25,311c20.23-.13,39.48-6.6,59.09-10.83,16-3.46,30.69-10.18,46-16.75a48.86,48.86,0,0,0-6.13-.5c-13.47.53-26.93,1.42-40.41,1.69-14.75.3-29.51.08-44.27,0a12.76,12.76,0,0,1-5.19-.93c-1.16-.54-1.87-2.05-2.78-3.13,1.15-.76,2.3-2.17,3.46-2.18,3.28,0,6.56.77,9.84.77,17.53,0,35.06,0,52.59-.32,15.26-.27,30.51-.88,45.76-1.46,14.16-.54,27.32-5.56,40.74-9.38,9.77-2.78,19.48-5.79,29.34-8.18,6.24-1.51,9.44-.27,10,2.53.51,2.64-2.06,4.7-8.22,6.51-3.56,1-7.14,2-10.71,3l.24,1.73c17-.75,34.09-1.84,51.14-2.15s34.22-3,52.54-1.74c-2.54,3.86-5.28,4-8,4.14-18.28.78-36.57,1.37-54.84,2.33-14.21.74-28.41,1.88-42.61,2.9-8.86.63-17.88.58-26.55,2.27-11.67,2.28-23.05,6-34.59,9-6.64,1.73-13.43,2.94-20,5a87.62,87.62,0,0,0-14.62,6.17c-1.31.68-2.17,3.3-2.14,5,0,.77,2.72,2.1,4.22,2.12,9.4.13,18.83.36,28.2-.23,10.9-.69,21.75-2.14,32.62-3.33,9.53-1,12.09.82,14.07,11.22,2.93.44,6.12,1.34,9.32,1.35,22.6,0,45.2-.23,67.66-3.39,3-.42,6.08-.06,9.11-.31,14.41-1.19,28.8-2.83,43.24-3.62,26.12-1.43,52.27-2.33,78.4-3.53,5.59-.26,11.15-.93,16.73-1.31a9.9,9.9,0,0,1,4.43.37,4.29,4.29,0,0,1,1.84,3,2.86,2.86,0,0,1-1.47,2.34,27.17,27.17,0,0,1-6.65,1.34c-32,1.59-64,2.93-96,4.7-19.25,1.07-38.44,2.9-57.68,4.17-16.19,1.06-32.4,1.89-48.61,2.64-6.57.31-13.17,0-19.76.2-5,.13-8.44-1.9-9.67-6.78-1-4.07-3.37-4.92-7.31-4.67-16.74,1-33.49,1.78-50.25,2.62-1,.05-2,0-3.05,0-8.75.3-16.42-1.22-18.8-11.91a48.6,48.6,0,0,0-6.13.66q-14.1,3.33-28.14,6.87c-7.57,1.9-15.06,4.1-22.66,5.81-7.44,1.69-14.95,3.08-22.62,1-1.37-.37-3,.16-4.5.35-23.16,3.06-46.3,6.21-69.47,9.12-4.52.56-9.15.18-13.72.29-4.81.12-9.68-.13-14.41.52-20.15,2.77-40.21,6.15-60.39,8.64-21.19,2.61-42.47,4.49-63.71,6.63-5.75.57-11.38,1.24-17.34.67-4.55-.43-9.49,3-14.23,4.82C79.62,353.2,68,357.71,56.35,362a18.23,18.23,0,0,1-6.72,1.16c-1.53-.05-3.83-.93-4.29-2.05s.43-3.69,1.54-4.49a81.08,81.08,0,0,1,12.27-7.56c14-6.66,27.95-13.26,42.14-19.41,8.6-3.72,17.52-6.75,26.41-9.76C142.12,315,156.86,311,171,305.46c7.69-3,14.63-8.08,21.64-12.62a88.5,88.5,0,0,0,13.45-11.1,27.31,27.31,0,0,0-15.35,3.85c-4.42,2.54-8.18,6.47-14.07,7.54-.22-5.34,2.72-8.16,6.27-10,7.7-3.92,15.67-7.43,24.46-8.06,7.7-.55,12.69-4.67,15.91-11.33,2-4.21,1.12-6.74-3.28-8.37a20.11,20.11,0,0,0-6.7-1.18c-10.46-.05-20.7.69-30.62,4.94-7.89,3.38-16.68,4.68-24.48,8.22-16.9,7.66-33.43,16.11-50.07,24.33a85.57,85.57,0,0,0-10.6,6c-8.11,5.57-16,11.4-24.65,17.55-2.13-1.18-1.92-3.76,0-5.68,3.69-3.76,7.4-7.92,11.93-10.41,17.13-9.44,34.36-18.74,52-27.19,16-7.68,32.36-14.79,49.93-18.38,7.45-1.52,14.92-3,22.45-4.07a34.82,34.82,0,0,1,10.62.5c7.37,1.33,10.72,6.47,9.47,13.83C229,265.57,228.71,267.28,228.19,270.37Zm-5.44,19.38c5.69,1.89,10.71-1.49,16-2.34,5.76-.92,11.45-2.27,17.18-3.43l15.93-3.18.66,1.68c-1.25.78-2.41,2-3.77,2.28-13.38,3-26.73,6.19-40.21,8.64-6,1.09-10.17,3.08-12.9,8.94A64.16,64.16,0,0,1,199.08,324c-1.63,1.4-3.18,3.48-6.44,1.57a40,40,0,0,1,2.76-4.22c2.62-3.11,5.91-5.79,7.92-9.23s5.94-6.36,4.9-11.86c-2.18,0-4.31-.5-6.07.09-9.62,3.24-19.46,6.08-28.64,10.32-15.43,7.14-30.41,15.23-45.6,22.88-2.78,1.4-5.65,2.61-8.48,3.91l.51,1.71c19.16-.38,38-3.94,56.8-6l3.12-8.53c2.87,2.79,4.86,4.74,7,6.82,11.29.3,55-6.39,61.29-9.54-1.34-7.63,3-12.24,9.11-15.8,2-1.15,3.93-2.38,6-3.33,12.24-5.61,24.51-11.12,36.75-16.72,2.19-1,4.29-2.25,6.43-3.38l0-1.83c-2.18-.78-4.29-2-6.53-2.28-21.44-2.94-42.92-4.83-64.61-3.17C225.43,276.17,223.07,278.47,222.75,289.75Zm114,5.36c-6.56-9.23-15.76-13-24.52-9.25-17.64,7.64-35.75,14.38-51.91,25.09-2.39,1.58-4.33,3.83-6.63,5.9,5.64,4.07,6.19,4.44,11.82,3.31,11.18-2.25,22.41-4.38,33.39-7.37,10-2.73,19.72-6.49,29.54-9.86C332.2,301.64,335.21,299.46,336.79,295.11ZM64.84,352c8.28.21,69.73-25.22,78.54-32.49C116.46,328.55,89.79,338.21,64.84,352ZM217.3,280.26l-22.59,17.07a52.11,52.11,0,0,0,14.65-3C215.92,292.27,217.61,289.4,217.3,280.26Z" transform="translate(-45.21 -249.32)"/>
</svg>
