<?xml version="1.0" encoding="iso-8859-1"?>
<!-- Generator: Adobe Illustrator 19.0.0, SVG Export Plug-In . SVG Version: 6.00 Build 0)  -->
<svg version="1.1" id="Layer_1" xmlns="http://www.w3.org/2000/svg" xmlns:xlink="http://www.w3.org/1999/xlink" x="0px" y="0px"
	 viewBox="0 0 512 512" style="enable-background:new 0 0 512 512;" xml:space="preserve">
<g>
	<g>
		<path d="M468.32,53.08H43.68C19.595,53.08,0,72.675,0,96.76V415.24c0,24.085,19.595,43.68,43.68,43.68H468.32
			c24.085,0,43.68-19.595,43.68-43.68V96.76C512,72.675,492.405,53.08,468.32,53.08z M495.413,415.24
			c0,14.939-12.154,27.093-27.093,27.093H43.68c-14.939,0-27.093-12.154-27.093-27.093V140.441h478.825V415.24z M495.413,123.853
			H16.587V96.76c0-14.939,12.154-27.093,27.093-27.093H468.32c14.939,0,27.093,12.154,27.093,27.093V123.853z"/>
	</g>
</g>
<g>
	<g>
		<path d="M61.374,88.467h-8.847c-4.58,0-8.294,3.713-8.294,8.294c0,4.58,3.713,8.294,8.294,8.294h8.847
			c4.58,0,8.294-3.713,8.294-8.294C69.667,92.18,65.954,88.467,61.374,88.467z"/>
	</g>
</g>
<g>
	<g>
		<path d="M96.76,88.467h-8.847c-4.58,0-8.294,3.713-8.294,8.294c0,4.58,3.713,8.294,8.294,8.294h8.847
			c4.58,0,8.294-3.713,8.294-8.294C105.054,92.18,101.341,88.467,96.76,88.467z"/>
	</g>
</g>
<g>
	<g>
		<path d="M132.147,88.467H123.3c-4.58,0-8.294,3.713-8.294,8.294c0,4.58,3.713,8.294,8.294,8.294h8.847
			c4.58,0,8.294-3.713,8.294-8.294C140.441,92.18,136.727,88.467,132.147,88.467z"/>
	</g>
</g>
<g>
	<g>
		<path d="M134.321,291.387l57.148-65.312c3.016-3.448,2.666-8.687-0.781-11.704c-3.447-3.016-8.686-2.667-11.703,0.781
			l-61.927,70.773c-2.736,3.127-2.736,7.796,0,10.923l61.927,70.773c1.64,1.873,3.937,2.832,6.245,2.832
			c1.939,0,3.885-0.676,5.458-2.051c3.447-3.017,3.796-8.256,0.781-11.703L134.321,291.387z"/>
	</g>
</g>
<g>
	<g>
		<path d="M394.942,285.923l-61.927-70.771c-3.017-3.447-8.256-3.796-11.703-0.781c-3.447,3.017-3.796,8.256-0.781,11.703
			l57.148,65.312l-57.148,65.312c-3.017,3.448-2.667,8.686,0.781,11.703c1.574,1.377,3.52,2.051,5.458,2.051
			c2.308,0,4.606-0.959,6.245-2.832l61.927-70.773C397.678,293.719,397.678,289.05,394.942,285.923z"/>
	</g>
</g>
<g>
	<g>
		<path d="M294.606,204.123c-4.224-1.777-9.086,0.205-10.863,4.424L212.97,376.634c-1.777,4.222,0.203,9.084,4.424,10.863
			c1.052,0.442,2.142,0.652,3.215,0.652c3.237,0,6.312-1.908,7.648-5.077l70.773-168.086
			C300.808,210.764,298.827,205.9,294.606,204.123z"/>
	</g>
</g>
<g>
</g>
<g>
</g>
<g>
</g>
<g>
</g>
<g>
</g>
<g>
</g>
<g>
</g>
<g>
</g>
<g>
</g>
<g>
</g>
<g>
</g>
<g>
</g>
<g>
</g>
<g>
</g>
<g>
</g>
</svg>
