<?xml version="1.0" encoding="utf-8"?>
<!-- Generator: Adobe Illustrator 22.1.0, SVG Export Plug-In . SVG Version: 6.00 Build 0)  -->
<svg version="1.1" id="Capa_1" xmlns="http://www.w3.org/2000/svg" xmlns:xlink="http://www.w3.org/1999/xlink" x="0px" y="0px"
	 viewBox="0 0 512 512" style="enable-background:new 0 0 512 512;" xml:space="preserve">
<style type="text/css">
	.st0{fill:#323232;}
</style>
<g>
	<path id="Facebook" class="st0" d="M188.2,99.2c0,12.9,0,70.5,0,70.5h-51.6v86.2h51.6V512h106.1V255.9h71.2c0,0,6.7-41.3,9.9-86.5
		c-9.3,0-80.7,0-80.7,0s0-50.1,0-58.9c0-8.8,11.6-20.7,23-20.7c11.4,0,35.5,0,57.8,0c0-11.7,0-52.3,0-89.7c-29.8,0-63.7,0-78.6,0
		C185.6,0,188.2,86.3,188.2,99.2z"/>
</g>
</svg>
