<svg xmlns="http://www.w3.org/2000/svg" width="512" height="512" viewBox="0 0 512 512">
  <g fill="none" fill-rule="evenodd">
    <circle cx="256" cy="256" r="256" fill="#434343"/>
    <g transform="translate(135 118)">
      <path fill="#95BF46" d="M211.536006,54.1982786 C211.346287,52.8174588 210.137382,52.0542581 209.13805,51.9704385 C208.140923,51.8866187 187.033608,50.322719 187.033608,50.322719 C187.033608,50.322719 172.374524,35.7711727 170.766326,34.1609516 C169.155923,32.5507304 166.012327,33.0404141 164.792392,33.3999566 C164.611497,33.4528954 161.589234,34.3859414 156.588158,35.9321948 C151.690767,21.8438628 143.049739,8.8959203 127.845766,8.8959203 C127.42662,8.8959203 126.994237,8.91356655 126.561855,8.93783017 C122.238032,3.22044226 116.881786,0.736731311 112.255736,0.736731311 C76.8400971,0.736731311 59.9198308,45.0045777 54.6143236,67.5013521 C40.8530952,71.7651294 31.0759608,74.7958744 29.8273466,75.1885037 C22.1459429,77.597218 21.9032792,77.8398541 20.8951226,85.077026 C20.1340415,90.5561894 0.0348828829,245.975615 0.0348828829,245.975615 L156.652133,275.316932 L241.513777,256.960411 C241.513777,256.960411 211.723519,55.5790984 211.536006,54.1982786 L211.536006,54.1982786 L211.536006,54.1982786 Z M147.931688,38.6100146 C143.998333,39.8276064 139.526706,41.2106321 134.680053,42.7105641 C134.684466,41.7775181 134.688877,40.8577069 134.688877,39.8540759 C134.688877,31.0971198 133.473354,24.0474394 131.523222,18.4579869 C139.356841,19.4417658 144.574108,28.3531266 147.931688,38.6100146 L147.931688,38.6100146 L147.931688,38.6100146 Z M121.80565,20.1939376 C123.983004,25.6510432 125.399276,33.4815706 125.399276,44.0494739 C125.399276,44.5898906 125.394864,45.0839859 125.390452,45.5846985 C116.771485,48.2536951 107.406878,51.1520932 98.0202113,54.0593143 C103.290422,33.7220009 113.169034,23.899652 121.80565,20.1939376 L121.80565,20.1939376 L121.80565,20.1939376 Z M111.282877,10.2348302 C112.811657,10.2348302 114.351467,10.753189 115.825097,11.767849 C104.475061,17.1080481 92.3087943,30.5589089 87.1709455,57.4187209 C79.6616122,59.7436155 72.3221434,62.0155713 65.5363886,64.1176819 C71.5544442,43.6303753 85.8451203,10.2348302 111.282877,10.2348302 L111.282877,10.2348302 L111.282877,10.2348302 Z"/>
      <path fill="#5E8E3E" d="M187.033608,50.322719 C187.033608,50.322719 172.374524,35.7711727 170.766326,34.1609516 C170.16408,33.5609787 169.35226,33.254375 168.502938,33.122028 L156.660957,275.314727 L241.513777,256.960411 C241.513777,256.960411 211.723519,55.5790984 211.536006,54.1982786 C211.346287,52.8174588 210.137382,52.0542581 209.13805,51.9704385 C208.140923,51.8866187 187.033608,50.322719 187.033608,50.322719 Z"/>
      <path fill="#FFFFFF" d="M127.845766,98.8543425 L117.382556,129.975726 C117.382556,129.975726 108.214286,125.083301 96.9767583,125.083301 C80.5021104,125.083301 79.6726424,135.421803 79.6726424,138.026832 C79.6726424,152.240893 116.72957,157.68697 116.72957,190.981049 C116.72957,217.174714 100.113736,234.042333 77.7092738,234.042333 C50.8243603,234.042333 37.0763682,217.311473 37.0763682,217.311473 L44.274651,193.530933 C44.274651,193.530933 58.4064928,205.662737 70.3323024,205.662737 C78.1240078,205.662737 81.294076,199.528456 81.294076,195.046306 C81.294076,176.504499 50.8927474,175.677331 50.8927474,145.211065 C50.8927474,119.568845 69.2998794,94.7537935 106.456078,94.7537935 C120.773227,94.7537935 127.845766,98.8543425 127.845766,98.8543425"/>
    </g>
  </g>
</svg>
