<?xml version="1.0" encoding="utf-8"?>
<!-- Generator: Adobe Illustrator 22.1.0, SVG Export Plug-In . SVG Version: 6.00 Build 0)  -->
<svg version="1.1" id="Capa_1" xmlns="http://www.w3.org/2000/svg" xmlns:xlink="http://www.w3.org/1999/xlink" x="0px" y="0px"
	 viewBox="0 0 512 512" style="enable-background:new 0 0 512 512;" xml:space="preserve">
<style type="text/css">
	.st0{fill:#323232;}
</style>
<g>
	<path id="LinkedIn__x28_alt_x29_" class="st0" d="M474.2,0H37.8C16.9,0,0,16.4,0,36.7v438.6C0,495.6,16.9,512,37.8,512h436.4
		c20.9,0,37.8-16.4,37.8-36.7V36.7C512,16.4,495.1,0,474.2,0z M155.2,428.6H77.9V197.4h77.4V428.6z M116.6,165.8H116
		c-25.9,0-42.8-17.7-42.8-40C73.3,103.2,90.6,86,117,86c26.5,0,42.7,17.3,43.2,39.9C160.3,148.1,143.5,165.8,116.6,165.8z
		 M434.1,428.6h-77.3V304.9c0-31.1-11.2-52.3-39.2-52.3c-21.4,0-34.1,14.3-39.7,28.1c-2.1,4.9-2.6,11.8-2.6,18.7v129.1H198
		c0,0,1-209.5,0-231.2h77.3v32.8c10.3-15.7,28.6-38.2,69.7-38.2c50.9,0,89.1,33,89.1,104.1L434.1,428.6L434.1,428.6z M274.8,230.9
		c0.1-0.2,0.3-0.5,0.5-0.7v0.7H274.8z"/>
</g>
</svg>
