<?xml version="1.0" encoding="utf-8"?>
<!-- Generator: Adobe Illustrator 16.0.4, SVG Export Plug-In . SVG Version: 6.00 Build 0)  -->
<!DOCTYPE svg PUBLIC "-//W3C//DTD SVG 1.1//EN" "http://www.w3.org/Graphics/SVG/1.1/DTD/svg11.dtd">
<svg version="1.1" id="Layer_1" xmlns="http://www.w3.org/2000/svg" xmlns:xlink="http://www.w3.org/1999/xlink" x="0px" y="0px"
	 width="960px" height="109.439px" viewBox="0 0 960 109.439" enable-background="new 0 0 960 109.439" xml:space="preserve">
<path fill="#231F20" d="M266.4,108.96V-0.48h46.561c5.279,0,10.08,0.96,14.398,3.36c4.32,1.92,8.16,4.8,11.041,8.64
	c2.881,3.84,5.76,7.68,7.199,12c1.92,4.32,2.881,9.12,2.881,13.44c0,4.8-0.959,9.6-2.4,13.92c-1.918,4.319-3.84,8.16-7.199,12
	c-2.881,3.359-6.719,6.24-11.041,8.16c-4.318,1.92-9.119,2.881-14.398,2.881H291.36v35.52H266.4V108.96z M291.84,51.841h20.641
	c2.881,0,5.76-1.44,7.682-3.84c2.398-2.4,3.359-6.24,3.359-11.04c0-2.4-0.48-4.801-0.961-6.721c-0.48-1.92-1.439-3.359-2.879-4.8
	c-0.961-1.439-2.4-1.92-3.842-2.88c-1.439-0.959-2.879-0.96-4.318-0.96H291.84V51.841L291.84,51.841z"/>
<path fill="#231F20" d="M355.682,108.96V-0.48h49.439c5.281,0,10.08,0.96,14.4,3.36c4.317,1.92,8.159,4.8,11.52,8.64
	c3.359,3.36,5.76,7.68,7.68,12s2.881,9.12,2.881,13.44c0,3.359-0.479,6.72-1.438,9.6c-0.961,3.36-1.92,6.24-3.361,8.64
	c-1.438,2.881-3.358,5.28-5.76,7.68c-2.398,2.398-4.799,4.32-7.68,5.76l24.959,40.801h-28.318l-22.08-35.52h-16.32v35.52h-25.92
	L355.682,108.96L355.682,108.96z M381.119,51.841h23.041c2.881,0,5.76-1.44,7.68-4.32c2.4-2.88,3.361-6.24,3.361-11.04
	c0-4.32-1.441-8.16-3.842-10.56c-2.398-2.88-5.279-3.84-8.158-3.84H380.64L381.119,51.841L381.119,51.841z"/>
<path fill="#231F20" d="M454.561,108.96V-0.48H480v109.44H454.561z"/>
<path fill="#231F20" d="M516.961,46.56v62.4H491.52V-0.48h19.683l50.879,64.321V-0.48h25.44v109.44h-20.159L516.961,46.56z"/>
<path fill="#231F20" d="M685.92,21.6h-33.119v87.36h-25.44V21.6H593.76V-0.48h92.16V21.6L685.92,21.6z"/>
<path fill="#231F20" d="M692.16,108.96V-0.48h74.399V21.6H717.6v23.521h40.32v20.639H717.6v43.201H692.16V108.96z"/>
<path fill="#231F20" d="M819.84,87.361c4.32,0,8.16-0.961,11.041-2.879c2.881-1.922,5.281-4.32,7.199-7.201
	c1.92-2.881,3.361-6.24,3.842-10.08c0.959-3.84,0.959-7.68,0.959-12V-0.481h25.439v56.16c0,7.68-0.959,14.881-2.879,21.121
	c-1.92,6.719-4.802,12.479-8.642,17.279s-9.119,8.641-14.881,11.52c-5.762,2.881-13.438,4.32-21.6,4.32
	c-8.642,0-16.32-1.439-22.562-4.32c-6.24-2.879-11.039-7.199-14.881-12c-3.84-4.799-6.719-10.561-8.639-17.279
	c-1.922-6.721-2.881-13.439-2.881-20.641v-56.16h25.438v56.16c0,4.32,0.48,8.16,1.441,12c0.959,3.84,2.397,7.201,3.84,10.08
	c1.92,2.881,4.318,5.279,7.199,7.201C812.16,86.4,815.52,87.361,819.84,87.361z"/>
<path fill="#231F20" d="M881.76,108.96V-0.48h25.441v87.36H960v22.08H881.76L881.76,108.96z"/>
<polygon fill="#F2C994" points="0,109.921 64.319,-0.48 128.641,109.921 "/>
<polygon fill="#ED4642" points="58.081,109.921 122.4,-0.48 186.72,109.921 "/>
<polygon fill="#17BCB5" points="116.16,109.921 180.48,-0.48 244.801,109.921 "/>
<polygon fill="#DF392F" points="58.081,109.921 128.641,109.921 93.12,49.44 "/>
<polygon fill="#16342F" points="116.16,109.921 186.72,109.921 151.681,49.44 "/>
<polygon fill="#15291A" points="116.16,109.921 128.641,109.921 122.4,99.361 "/>
</svg>
