<svg xmlns="http://www.w3.org/2000/svg" viewBox="0 0 968.11 142.83"><title>shopify-help-center-logo</title><path d="M107.39,27.22a1.38,1.38,0,0,0-1.23-1.15c-.49-.08-11.27-.82-11.27-.82s-7.48-7.4-8.22-8.22-2.38-.58-3-.41c-.08,0-1.64.49-4.19,1.32C77,10.77,72.61,4.19,64.88,4.19h-.66C62,1.32,59.29,0,57,0,39,.08,30.42,22.53,27.71,34c-7,2.14-11.92,3.7-12.58,3.86-3.86,1.23-4,1.32-4.52,5C10.2,45.72,0,124.66,0,124.66l79.51,14.88,43.09-9.29C122.6,130.17,107.47,28,107.39,27.22ZM75.07,19.32c-2,.66-4.28,1.32-6.74,2.06V19.9A32.77,32.77,0,0,0,66.69,9C70.72,9.62,73.43,14.14,75.07,19.32ZM61.84,9.95A34.26,34.26,0,0,1,63.64,22v.74c-4.36,1.32-9.13,2.8-13.9,4.28C52.46,16.86,57.48,11.84,61.84,9.95Zm-5.34-5a4.23,4.23,0,0,1,2.3.74C53,8.39,46.87,15.21,44.24,28.86c-3.78,1.15-7.56,2.3-11,3.37C36.34,21.87,43.58,4.93,56.49,4.93Z" fill="#95bf47"/><path d="M106.16,26.07c-.49-.08-11.27-.82-11.27-.82s-7.48-7.4-8.22-8.22a1.62,1.62,0,0,0-1.15-.49l-6,123,43.09-9.29S107.47,28,107.39,27.3A1.48,1.48,0,0,0,106.16,26.07Z" fill="#5e8e3e"/><path d="M64.88,49.91,59.53,65.7a24.76,24.76,0,0,0-10.36-2.47c-8.39,0-8.8,5.26-8.8,6.58C40.37,77,59.2,79.76,59.2,96.7c0,13.32-8.47,21.87-19.82,21.87-13.65,0-20.64-8.47-20.64-8.47L22.37,98s7.15,6.17,13.24,6.17a5.38,5.38,0,0,0,5.59-5.43c0-9.46-15.46-9.87-15.46-25.33,0-13,9.37-25.66,28.2-25.66C61.34,47.86,64.88,49.91,64.88,49.91Z" fill="#fff"/><path d="M172.84,79.51c-4.28-2.3-6.5-4.28-6.5-7,0-3.45,3-5.67,7.89-5.67a28,28,0,0,1,10.53,2.3l3.95-12s-3.62-2.8-14.23-2.8c-14.8,0-25.08,8.47-25.08,20.39,0,6.74,4.77,11.92,11.18,15.62,5.18,3,7,5,7,8.14s-2.55,5.76-7.4,5.76c-7.15,0-13.9-3.7-13.9-3.7l-4.19,12s6.25,4.19,16.69,4.19c15.21,0,26.15-7.48,26.15-21,.08-7.32-5.43-12.42-12.09-16.28Zm60.68-25.24c-7.48,0-13.4,3.54-17.93,9l-.25-.08,6.5-34H204.91l-16.45,86.59h16.94l5.67-29.6c2.22-11.18,8-18.09,13.4-18.09,3.78,0,5.26,2.55,5.26,6.25a38.48,38.48,0,0,1-.74,7.48l-6.41,33.88h16.94l6.66-35a63.52,63.52,0,0,0,1.23-11c-.08-9.54-5.1-15.29-13.9-15.29Zm52.13,0c-20.39,0-33.88,18.42-33.88,38.89,0,13.16,8.14,23.68,23.35,23.68,20,0,33.55-17.93,33.55-38.89,0-12.17-7.15-23.68-23-23.68Zm-8.31,49.58c-5.76,0-8.22-4.93-8.22-11,0-9.7,5-25.57,14.23-25.57,6,0,8,5.18,8,10.2C291.33,87.9,286.32,103.85,277.35,103.85ZM352,54.27c-11.43,0-17.93,10-17.93,10h-.25l1-9h-15c-.74,6.17-2.06,15.46-3.45,22.45l-11.76,62h16.86l4.69-25.08h.33s3.45,2.22,9.95,2.22c19.9,0,32.89-20.39,32.89-41,.08-11.35-5-21.54-17.35-21.54Zm-16.2,49.83a10.56,10.56,0,0,1-7-2.47l2.8-15.87c2-10.53,7.48-17.6,13.4-17.6,5.18,0,6.74,4.77,6.74,9.29C351.77,88.48,345.28,104.1,335.82,104.1Zm57.81-74.17a9.64,9.64,0,0,0-9.7,9.79c0,5,3.21,8.47,8,8.47h.25a9.58,9.58,0,0,0,9.95-9.79c0-4.93-3.29-8.47-8.47-8.47Zm-23.68,85.68h16.94l11.51-60h-17m60.11-.08H429.72l.58-2.8c1-5.76,4.44-10.94,10-10.94a18.43,18.43,0,0,1,5.43.82L449,29.36s-3-1.48-9.21-1.48a25.31,25.31,0,0,0-16.61,5.67c-5.76,4.93-8.47,12-9.79,19.16l-.49,2.8h-7.89l-2.47,12.75h7.89l-9,47.36h17l9-47.36h11.68l2.3-12.75Zm40.79.08s-10.61,26.72-15.38,41.28h-.25c-.33-4.69-4.19-41.28-4.19-41.28H444.61l10.2,55.09a3.87,3.87,0,0,1-.33,2.8,29.24,29.24,0,0,1-9.21,10.2,38.2,38.2,0,0,1-9.54,4.77l4.69,14.39A38.82,38.82,0,0,0,457,133.62c7.73-7.24,14.88-18.42,22.2-33.63l20.72-44.4H482.27Z"/><path d="M548.3,54.79c-8.43,0-15.25,4.59-20.34,12.53h-.25l7.57-39.19H530l-16.62,87.44h5.33l6-32.25c2.48-13.15,13.27-23.69,21.83-23.69,6.82,0,9.67,4.46,9.67,10.17a48.54,48.54,0,0,1-.74,8.56l-7.07,37.21h5.33l7-36.83a46.7,46.7,0,0,0,1-9.43C561.57,58.51,554.13,54.79,548.3,54.79Z"/><path d="M599.27,54.79c-17,0-29,22.45-29,39.56,0,11.41,4.84,22.32,18.73,22.32a29.58,29.58,0,0,0,16.25-4.46L603.61,108a25.94,25.94,0,0,1-13.77,4c-6.33,0-10.91-3.35-13-10-1.24-4.34-1.12-12.15-.5-14.88,19.47.12,36.83-4.09,36.83-19.22C613.16,61.12,609.06,54.79,599.27,54.79Zm8.31,13.27c0,11.78-14.88,14.39-30.39,14.26,3.72-12.9,11.91-22.82,21.08-22.82,5.58,0,9.3,3,9.3,8.43Z"/><polygon points="632.63 28.13 616.13 115.56 621.46 115.56 638.08 28.13 632.63 28.13"/><path d="M672.06,54.79c-7.94,0-15.38,5.08-20.71,13.27h-.25L653,56h-5.08c-.74,5.46-1.86,12.65-3.35,20.46l-11.91,63.38H638l4.71-25.67H643c2.23,1.24,6.08,2.6,11.91,2.6,19,0,32.74-22.57,32.74-42.66C687.57,64.34,683.35,54.79,672.06,54.79Zm-16.74,57.3c-4.84,0-8.81-1.24-11.53-3.35l3.84-20.46C651,70.29,662,59.5,670.45,59.5c8.81,0,11.53,7.94,11.53,15C682,89.77,671.07,112.09,655.32,112.09Z"/><path d="M745,59.75a21.44,21.44,0,0,1,9.3,2.11l1.86-4.59c-1.24-1-5.58-2.48-10.29-2.48-20.46,0-33,21.7-33,40.06,0,11.29,5.08,21.83,19.47,21.83a34.5,34.5,0,0,0,15-3.22l-1.24-4.71A28.57,28.57,0,0,1,733.45,112c-10.79,0-15-7.44-15-17.74C718.44,78.85,728.37,59.75,745,59.75Z"/><path d="M784.67,54.79c-17,0-29,22.45-29,39.56,0,11.41,4.84,22.32,18.73,22.32a29.58,29.58,0,0,0,16.25-4.46L789,108a25.94,25.94,0,0,1-13.77,4c-6.33,0-10.91-3.35-13-10-1.24-4.34-1.12-12.15-.5-14.88,19.47.12,36.83-4.09,36.83-19.22C798.56,61.12,794.47,54.79,784.67,54.79ZM793,68.06c0,11.78-14.88,14.39-30.39,14.26,3.72-12.9,11.91-22.82,21.08-22.82,5.58,0,9.3,3,9.3,8.43Z"/><path d="M836.51,54.79c-8.19,0-15.63,4.71-20.84,13.39h-.25L817.16,56h-5.08c-.5,4.59-1.24,10.42-2.6,17.49l-7.94,42h5.33l5.83-31.63c2.6-14.39,13.89-24.31,21.83-24.31,7.32,0,9.8,4.46,9.8,10.67a47.88,47.88,0,0,1-.87,8.68l-7,36.59h5.33L848.67,79a48.73,48.73,0,0,0,1.12-9.18C849.78,58.51,842.34,54.79,836.51,54.79Z"/><path d="M873.22,112c-3.72,0-5.33-2.11-5.33-5.58a55.07,55.07,0,0,1,1.24-10.29l6.57-35.47h14l1-4.59h-14l2.6-13-6,2.36-2,10.67h-8.68l-.87,4.59h8.56l-6.7,35.47A49.12,49.12,0,0,0,862.3,107c0,5,2.73,9.67,9.8,9.67a20.58,20.58,0,0,0,5.83-.87l-.37-4.34A13.41,13.41,0,0,1,873.22,112Z"/><path d="M918.11,54.79c-17,0-29,22.45-29,39.56,0,11.41,4.84,22.32,18.73,22.32a29.58,29.58,0,0,0,16.25-4.46L922.45,108a25.94,25.94,0,0,1-13.77,4c-6.33,0-10.91-3.35-13-10-1.24-4.34-1.12-12.15-.5-14.88C914.65,87.24,932,83,932,67.9,932,61.12,927.91,54.79,918.11,54.79Zm8.31,13.27c0,11.78-14.88,14.39-30.39,14.26,3.73-12.89,12-22.82,21.09-22.82,5.58,0,9.3,3,9.3,8.43Z"/><path d="M965.86,54.79c-7.44,0-13.39,6.33-17,14.26h-.25c.74-5.21,1.24-9.18,1.61-13h-4.84c-.5,5.21-1.36,11.91-2.85,19.47l-7.54,40h5.33L946,85.3c2.48-13,11.16-24.8,19-24.8a8.82,8.82,0,0,1,2,.12l1.12-5.71C967.47,54.92,966.6,54.79,965.86,54.79Z"/></svg>
