<?xml version="1.0" encoding="utf-8"?>
<!-- Generator: Adobe Illustrator 16.0.4, SVG Export Plug-In . SVG Version: 6.00 Build 0)  -->
<!DOCTYPE svg PUBLIC "-//W3C//DTD SVG 1.1//EN" "http://www.w3.org/Graphics/SVG/1.1/DTD/svg11.dtd">
<svg version="1.1" id="Layer_1" xmlns="http://www.w3.org/2000/svg" xmlns:xlink="http://www.w3.org/1999/xlink" x="0px" y="0px"
	 width="1095.895px" height="219px" viewBox="0 0 1095.895 219" enable-background="new 0 0 1095.895 219" xml:space="preserve">
<g opacity="0.05">
	<image overflow="visible" width="247" height="105" xlink:href="F03FE8D652899525.png"  transform="matrix(1 0 0 1 -24 130)">
	</image>
</g>
<g opacity="0.12">
	<image overflow="visible" width="234" height="100" xlink:href="F03FE8D652899527.png"  transform="matrix(1 0 0 1 -16 133)">
	</image>
</g>
<g>
	<linearGradient id="SVGID_1_" gradientUnits="userSpaceOnUse" x1="73.9937" y1="150.6895" x2="73.9937" y2="161.9255">
		<stop  offset="0" style="stop-color:#000000;stop-opacity:0"/>
		<stop  offset="1" style="stop-color:#000000;stop-opacity:0.52"/>
	</linearGradient>
	<path fill="url(#SVGID_1_)" d="M120.779,66.802c-1.085-0.213-3.673-5.885-3.941-5.821c0,0-63.395,18.479-64.25,19.502
		c-0.937,1.123-27.779,96.036-27.779,96.036l98.371,18.432L120.779,66.802z"/>
	<linearGradient id="SVGID_2_" gradientUnits="userSpaceOnUse" x1="148.917" y1="147.4736" x2="148.917" y2="159.5259">
		<stop  offset="0" style="stop-color:#000000;stop-opacity:0"/>
		<stop  offset="1" style="stop-color:#000000;stop-opacity:0.52"/>
	</linearGradient>
	<path fill="url(#SVGID_2_)" d="M148.252,64.48c0,0-0.144-0.777-0.583-1.061c-0.441-0.284-0.922-0.339-0.922-0.339l-13.884-1.034
		l-10.218-10.152c-0.38-0.297-0.831-0.47-1.289-0.559l1.823,143.621l53.3-11.536L148.252,64.48z"/>
</g>
<linearGradient id="SVGID_3_" gradientUnits="userSpaceOnUse" x1="161.5942" y1="188.8711" x2="84.5827" y2="163.14">
	<stop  offset="0" style="stop-color:#000000;stop-opacity:0"/>
	<stop  offset="1" style="stop-color:#000000;stop-opacity:0.4"/>
</linearGradient>
<polygon fill="url(#SVGID_3_)" points="123.184,194.941 179.673,196.027 201.853,183.418 176.598,183.4 "/>
<path opacity="0.3" fill="#FFFFFF" d="M123.328,70.732c2.107,0.725,4.189-0.655,4.647-3.081c0.459-2.423-0.877-4.977-2.985-5.7
	c-2.109-0.726-4.19,0.652-4.648,3.079C119.884,67.456,121.22,70.011,123.328,70.732z"/>
<path opacity="0.62" fill="#595961" d="M81.303,78.899c-0.141,0-0.285-0.01-0.432-0.031c-1.663-0.233-3.053-1.736-3.106-3.357
	c-0.052-1.587-1.019-38.963,20.899-47.465c5.532-2.146,10.557-1.664,14.933,1.435c5.262,3.724,9.098,11.077,11.404,21.855
	c1.629,7.62,1.893,14.185,1.905,14.46c0.061,1.623-1.238,2.757-2.9,2.532c-1.663-0.225-3.061-1.723-3.123-3.345
	c-0.262-6.771-2.606-25.515-10.206-30.891c-2.435-1.721-5.38-1.874-9.005-0.468c-18.788,7.287-17.896,42.378-17.884,42.732
	C83.834,77.834,82.753,78.899,81.303,78.899z"/>
<path opacity="0.62" fill="#595961" d="M81.303,78.899c-0.141,0-0.285-0.01-0.432-0.031c-1.663-0.233-3.053-1.736-3.106-3.357
	c-0.052-1.587-1.019-38.963,20.899-47.465c5.532-2.146,10.557-1.664,14.933,1.435c5.262,3.724,9.098,11.077,11.404,21.855
	c1.629,7.62,1.893,14.185,1.905,14.46c0.061,1.623-1.238,2.757-2.9,2.532c-1.663-0.225-3.061-1.723-3.123-3.345
	c-0.262-6.771-2.606-25.515-10.206-30.891c-2.435-1.721-5.38-1.874-9.005-0.468c-18.788,7.287-17.896,42.378-17.884,42.732
	C83.834,77.834,82.753,78.899,81.303,78.899z"/>
<path opacity="0.46" fill="#B2B2C2" d="M112.548,29.604c-3.976-2.814-8.683-3.247-13.822-1.253
	c-8.904,3.454-15.242,12.653-18.327,26.604c-2.285,10.334-2.019,19.584-2.007,19.973c0.016,0.491,0.227,0.979,0.594,1.375
	c0.368,0.396,0.846,0.653,1.345,0.724c0.092,0.013,0.183,0.02,0.272,0.02c0.915,0,1.583-0.684,1.554-1.59
	c-0.012-0.36-0.935-36.1,18.449-43.619c3.924-1.521,7.35-1.309,10.117,0.65c8.076,5.714,10.525,24.969,10.788,31.907
	c0.039,1.013,0.914,1.951,1.955,2.092c1.046,0.137,1.847-0.589,1.809-1.583C125.231,63.799,124.115,37.791,112.548,29.604z"/>
<path opacity="0.46" fill="#B2B2C2" d="M80.407,75.933c-0.053,0-0.107-0.003-0.162-0.012c-0.624-0.087-1.146-0.651-1.166-1.259
	c-0.012-0.384-0.281-9.525,1.992-19.805c3.041-13.749,9.252-22.802,17.966-26.181c4.92-1.909,9.321-1.528,13.081,1.133
	c11.2,7.927,12.296,33.533,12.337,34.62c0.023,0.608-0.463,1.031-1.087,0.949c-0.622-0.084-1.147-0.646-1.17-1.254
	c-0.011-0.253-1.086-25.447-11.176-32.585c-3.018-2.136-6.67-2.395-10.858-0.771c-19.776,7.67-18.838,43.846-18.827,44.21
	C81.356,75.533,80.951,75.933,80.407,75.933z"/>
<path opacity="0.62" fill="#595961" d="M88.468,47.26c0.845-1.481,1.602-3.019,2.279-4.584c-0.311,0.521-2.278,5.734-8.429,4.935
	C82.317,47.61,85.961,48.706,88.468,47.26z"/>
<path opacity="0.62" fill="#595961" d="M86.264,53.723c0.637-1.604,1.18-3.254,1.644-4.924c-0.238,0.567-1.229,5.979-7.575,6.021
	C80.333,54.82,84.009,55.491,86.264,53.723z"/>
<path opacity="0.62" fill="#595961" d="M84.84,60.25c0.465-1.684,0.834-3.406,1.123-5.141c-0.177,0.597-0.307,6.086-6.819,6.819
	C79.144,61.928,82.808,62.256,84.84,60.25z"/>
<path opacity="0.62" fill="#595961" d="M121.358,40.842c-0.793-1.785-1.673-3.544-2.617-5.262c0.273,0.64,3.309,6.27-0.055,10.359
	C118.687,45.938,121.325,43.906,121.358,40.842z"/>
<path opacity="0.62" fill="#595961" d="M115.869,31.788c-1.574-1.262-3.199-2.452-4.848-3.571c0.555,0.458,5.92,4.154,5.611,9.785
	C116.631,38.001,117.515,34.691,115.869,31.788z"/>
<path opacity="0.62" fill="#595961" d="M123.983,50.001c-0.454-1.844-1.001-3.679-1.62-5.488c0.15,0.659,2.124,6.576-2.097,9.809
	C120.267,54.322,123.346,52.9,123.983,50.001z"/>
<path opacity="0.62" fill="#595961" d="M126.125,59.346c-0.222-1.846-0.541-3.694-0.936-5.527c0.068,0.658,1.306,6.645-3.39,9.253
	C121.799,63.072,125.104,62.078,126.125,59.346z"/>
<path opacity="0.62" fill="#595961" d="M83.851,67.599c0.248-1.762,0.399-3.551,0.47-5.344c-0.1,0.625-0.034,6.323-5.805,7.713
	C78.516,69.968,82.118,69.872,83.851,67.599z"/>
<path opacity="0.62" fill="#595961" d="M91.379,41.787c1.162-1.231,2.246-2.533,3.256-3.877c-0.423,0.431-3.713,4.488-9.571,2.982
	C85.064,40.892,88.539,42.653,91.379,41.787z"/>
<path opacity="0.62" fill="#595961" d="M95.093,37.242c1.399-0.975,2.731-2.029,3.997-3.138c-0.507,0.338-4.571,3.642-10.251,1.192
	C88.839,35.296,92.053,37.578,95.093,37.242z"/>
<path opacity="0.62" fill="#595961" d="M100.528,33.901c1.695-0.493,3.346-1.078,4.943-1.731c-0.61,0.165-5.668,2.029-10.691-1.798
	C94.78,30.373,97.362,33.353,100.528,33.901z"/>
<path opacity="0.62" fill="#595961" d="M105.387,32.106c1.425,0.201,2.845,0.331,4.248,0.4c-0.509-0.081-4.883-0.43-7.44-4.418
	C102.195,28.087,103.19,30.787,105.387,32.106z"/>
<path opacity="0.62" fill="#595961" d="M111.174,34.289c1.048,1.117,2.143,2.188,3.268,3.211c-0.368-0.404-3.778-3.675-3.039-7.819
	C111.403,29.682,110.287,31.972,111.174,34.289z"/>
<linearGradient id="SVGID_4_" gradientUnits="userSpaceOnUse" x1="98.1646" y1="29.0908" x2="88.3484" y2="70.2662" gradientTransform="matrix(1 0 0.1763 1 0.2129 0)">
	<stop  offset="0" style="stop-color:#FFFFFF;stop-opacity:0.65"/>
	<stop  offset="1" style="stop-color:#FFFFFF;stop-opacity:0"/>
</linearGradient>
<path opacity="0.74" fill="url(#SVGID_4_)" d="M123.269,63.825c-0.04-1.074-1.125-26.38-12.047-34.111
	c-2.065-1.462-4.364-2.204-6.832-2.204c-1.792,0-3.709,0.391-5.694,1.161c-8.569,3.323-14.688,12.267-17.694,25.863
	c-2.254,10.193-1.993,19.296-1.98,19.679c0.01,0.303,0.271,0.585,0.583,0.629c0.029,0.004,0.055,0.006,0.082,0.006
	c0.273,0,0.473-0.206,0.465-0.478c-0.012-0.368-0.952-36.873,19.108-44.654c4.35-1.688,8.232-1.389,11.414,0.862
	c10.374,7.341,11.456,32.837,11.466,33.095c0.011,0.303,0.274,0.584,0.585,0.627c0.024,0.002,0.05,0.004,0.076,0.004
	C123.078,64.304,123.279,64.098,123.269,63.825z"/>
<g>
	
		<linearGradient id="SVGID_5_" gradientUnits="userSpaceOnUse" x1="108.1362" y1="41.8237" x2="112.8182" y2="73.4564" gradientTransform="matrix(1 0 0.1763 1 0.2129 0)">
		<stop  offset="0" style="stop-color:#000000;stop-opacity:0"/>
		<stop  offset="1" style="stop-color:#000000;stop-opacity:0.4"/>
	</linearGradient>
	<path fill="url(#SVGID_5_)" d="M125,51.336c-2.306-10.778-6.142-18.132-11.404-21.855c-2.854-2.02-5.985-2.92-9.351-2.713
		c2.666,0.169,5.174,1.068,7.497,2.713c5.262,3.724,9.099,11.077,11.403,21.855c1.629,7.62,1.894,14.185,1.905,14.46
		c0.043,1.159-0.608,2.065-1.588,2.409c0.177,0.055,0.358,0.098,0.543,0.123c1.662,0.225,2.961-0.909,2.9-2.532
		C126.894,65.521,126.63,58.956,125,51.336z"/>
</g>
<linearGradient id="SVGID_6_" gradientUnits="userSpaceOnUse" x1="77.6445" y1="63.2251" x2="94.0597" y2="28.7787" gradientTransform="matrix(1 0 0.1763 1 0.2129 0)">
	<stop  offset="0" style="stop-color:#000000;stop-opacity:0"/>
	<stop  offset="1" style="stop-color:#000000;stop-opacity:0.4"/>
</linearGradient>
<path fill="url(#SVGID_6_)" d="M99.818,33.624C81.03,40.911,81.921,76.002,81.933,76.356c0.036,1.152-0.613,2.05-1.587,2.392
	c0.171,0.053,0.346,0.095,0.525,0.12c0.147,0.021,0.291,0.031,0.432,0.031c1.45,0,2.531-1.065,2.485-2.543
	c-0.012-0.354-0.903-35.445,17.884-42.732c1.268-0.492,2.452-0.789,3.561-0.898C103.616,32.548,101.82,32.847,99.818,33.624z"/>
<linearGradient id="SVGID_7_" gradientUnits="userSpaceOnUse" x1="96.3267" y1="38.0127" x2="105.2276" y2="82.8884">
	<stop  offset="0" style="stop-color:#000000;stop-opacity:0"/>
	<stop  offset="1" style="stop-color:#000000;stop-opacity:0.4"/>
</linearGradient>
<path fill="url(#SVGID_7_)" d="M81.303,78.899c-0.141,0-0.285-0.01-0.432-0.031c-1.663-0.233-3.053-1.736-3.106-3.357
	c-0.052-1.587-1.019-38.963,20.899-47.465c5.532-2.146,10.557-1.664,14.933,1.435c5.262,3.724,9.098,11.077,11.404,21.855
	c1.629,7.62,1.893,14.185,1.905,14.46c0.061,1.623-1.238,2.757-2.9,2.532c-1.663-0.225-3.061-1.723-3.123-3.345
	c-0.262-6.771-2.606-25.515-10.206-30.891c-2.435-1.721-5.38-1.874-9.005-0.468c-18.788,7.287-17.896,42.378-17.884,42.732
	C83.834,77.834,82.753,78.899,81.303,78.899z"/>
<linearGradient id="SVGID_8_" gradientUnits="userSpaceOnUse" x1="114.4907" y1="50.0508" x2="60.9269" y2="181.929">
	<stop  offset="0" style="stop-color:#B8D26E"/>
	<stop  offset="1" style="stop-color:#7FB525"/>
</linearGradient>
<path fill="url(#SVGID_8_)" d="M128.291,42.273l-84.771,26.25c0,0-3.637,1.033-4.492,2.057c-0.937,1.123-1.117,4.155-1.117,4.155
	L24.808,175.806l98.371,18.431l7.574-152.049C129.668,41.975,128.56,42.209,128.291,42.273z"/>
<linearGradient id="SVGID_9_" gradientUnits="userSpaceOnUse" x1="194.0742" y1="107.6982" x2="144.3867" y2="115.4852">
	<stop  offset="0" style="stop-color:#B4E034"/>
	<stop  offset="1" style="stop-color:#60A927"/>
</linearGradient>
<path fill="url(#SVGID_9_)" d="M157.65,55.338c0,0-0.143-0.777-0.584-1.061c-0.44-0.284-0.921-0.339-0.921-0.339l-13.884-1.035
	l-10.218-10.152c-0.382-0.297-0.831-0.47-1.29-0.559l-7.574,152.048l53.3-11.536L157.65,55.338z"/>
<linearGradient id="SVGID_10_" gradientUnits="userSpaceOnUse" x1="70.4785" y1="130.8818" x2="57.4986" y2="236.5754" gradientTransform="matrix(0.9991 0.0435 -0.0435 0.9991 13.0044 -17.3096)">
	<stop  offset="0" style="stop-color:#1D1D1B;stop-opacity:0.5"/>
	<stop  offset="0.0896" style="stop-color:#1D1D1B;stop-opacity:0.4552"/>
	<stop  offset="1" style="stop-color:#1D1D1B;stop-opacity:0"/>
</linearGradient>
<path opacity="0.47" fill="url(#SVGID_10_)" d="M92.336,125.723c-1.508-2.031-3.262-3.814-5.117-5.395
	c-1.827-1.557-3.748-2.914-5.628-4.119c-1.341-0.838-2.503-1.644-3.489-2.436c-0.978-0.784-1.785-1.557-2.421-2.33
	c-0.633-0.769-1.098-1.542-1.396-2.334c-0.297-0.79-0.428-1.6-0.392-2.446c0.049-1.142,0.303-2.175,0.737-3.088
	c0.435-0.915,1.054-1.714,1.835-2.38c0.786-0.67,1.739-1.208,2.837-1.6c1.108-0.396,2.367-0.642,3.756-0.724
	c1.514-0.089,2.974-0.042,4.365,0.101c1.405,0.145,2.737,0.39,3.976,0.693c1.249,0.307,2.402,0.673,3.438,1.057
	c1.043,0.388,1.967,0.792,2.747,1.172l6.561-19.55c-0.976-0.499-2.159-0.956-3.526-1.343c-1.353-0.383-2.882-0.695-4.56-0.909
	c-1.657-0.21-3.454-0.325-5.367-0.316c-1.886,0.009-3.88,0.137-5.957,0.41c-4.479,0.587-8.522,1.825-12.056,3.59
	c-3.437,1.718-6.416,3.946-8.868,6.59c-2.404,2.591-4.32,5.603-5.672,8.958c-1.339,3.32-2.138,7.008-2.312,11.008
	c-0.104,2.393,0.137,4.591,0.656,6.618c0.523,2.039,1.329,3.917,2.356,5.653c1.035,1.752,2.299,3.366,3.724,4.858
	c1.444,1.51,3.057,2.898,4.77,4.178c1.397,1.021,2.577,1.982,3.56,2.915c0.99,0.939,1.776,1.848,2.38,2.754
	c0.607,0.911,1.027,1.819,1.284,2.757c0.258,0.938,0.353,1.905,0.307,2.93c-0.044,1.026-0.265,1.986-0.656,2.837
	c-0.39,0.849-0.948,1.586-1.668,2.17c-0.716,0.58-1.592,1.008-2.619,1.239c-1.018,0.229-2.182,0.269-3.484,0.076
	c-1.475-0.218-2.962-0.643-4.409-1.197c-1.427-0.548-2.816-1.221-4.115-1.946c-1.284-0.718-2.482-1.486-3.548-2.236
	c-1.056-0.744-1.984-1.469-2.741-2.111l-4.494,14.907c0.745,0.954,1.693,1.906,2.808,2.827c1.127,0.93,2.429,1.83,3.868,2.667
	c1.457,0.849,3.059,1.635,4.765,2.324c1.731,0.7,3.573,1.3,5.482,1.764c0.032,0.007,0.065,0.015,0.097,0.021
	c0.032,0.008,0.064,0.015,0.096,0.021c0.033,0.008,0.065,0.015,0.096,0.022c0.033,0.007,0.064,0.015,0.097,0.021
	c4.07,0.899,8.02,1.118,11.702,0.626c3.793-0.509,7.277-1.77,10.287-3.802c3.079-2.079,5.632-4.948,7.485-8.601
	c1.875-3.697,3.008-8.156,3.233-13.327c0.138-3.163-0.3-6.034-1.161-8.636C95.13,130.079,93.862,127.777,92.336,125.723z"/>
<linearGradient id="SVGID_11_" gradientUnits="userSpaceOnUse" x1="71.4639" y1="131.8672" x2="58.4839" y2="237.5608" gradientTransform="matrix(0.9991 0.0435 -0.0435 0.9991 13.0044 -17.3096)">
	<stop  offset="0" style="stop-color:#FFFFFF"/>
	<stop  offset="1" style="stop-color:#CECEEB"/>
</linearGradient>
<path fill="url(#SVGID_11_)" d="M93.277,126.748c-1.507-2.029-3.263-3.813-5.117-5.394c-1.827-1.558-3.748-2.915-5.628-4.119
	c-1.341-0.837-2.503-1.645-3.489-2.435c-0.978-0.785-1.785-1.558-2.421-2.33c-0.633-0.77-1.099-1.543-1.396-2.335
	c-0.298-0.79-0.429-1.601-0.393-2.446c0.05-1.142,0.303-2.175,0.737-3.088c0.436-0.916,1.055-1.713,1.836-2.38
	c0.786-0.669,1.739-1.208,2.836-1.601c1.108-0.395,2.367-0.642,3.756-0.724c1.513-0.089,2.974-0.042,4.364,0.101
	c1.406,0.146,2.738,0.39,3.976,0.693c1.25,0.307,2.403,0.672,3.438,1.057c1.044,0.387,1.967,0.793,2.747,1.172l6.561-19.551
	c-0.974-0.499-2.158-0.956-3.525-1.342c-1.354-0.383-2.882-0.695-4.56-0.909c-1.657-0.211-3.455-0.325-5.368-0.316
	c-1.885,0.009-3.879,0.137-5.957,0.409c-4.478,0.587-8.521,1.825-12.055,3.59c-3.437,1.718-6.417,3.947-8.868,6.59
	c-2.404,2.591-4.32,5.603-5.672,8.958c-1.339,3.32-2.139,7.009-2.313,11.009c-0.104,2.392,0.137,4.59,0.657,6.618
	c0.522,2.039,1.329,3.917,2.355,5.651c1.036,1.754,2.3,3.367,3.726,4.858c1.443,1.511,3.056,2.9,4.77,4.178
	c1.397,1.021,2.577,1.982,3.559,2.916c0.991,0.939,1.776,1.848,2.381,2.754c0.606,0.912,1.026,1.818,1.284,2.757
	c0.258,0.938,0.352,1.904,0.307,2.931c-0.044,1.025-0.265,1.984-0.656,2.835c-0.389,0.849-0.948,1.588-1.668,2.171
	c-0.717,0.581-1.592,1.007-2.618,1.239c-1.019,0.229-2.183,0.269-3.485,0.076c-1.475-0.218-2.963-0.644-4.409-1.197
	c-1.427-0.548-2.815-1.222-4.114-1.946c-1.284-0.718-2.482-1.486-3.548-2.237c-1.056-0.742-1.985-1.469-2.742-2.109l-4.493,14.907
	c0.744,0.953,1.692,1.905,2.807,2.825c1.128,0.93,2.429,1.83,3.868,2.668c1.458,0.849,3.06,1.635,4.765,2.324
	c1.732,0.7,3.573,1.301,5.482,1.763c0.033,0.008,0.064,0.015,0.096,0.022c0.033,0.008,0.065,0.016,0.097,0.022
	c0.032,0.008,0.064,0.015,0.097,0.021c0.031,0.008,0.064,0.015,0.096,0.022c4.071,0.899,8.02,1.118,11.702,0.625
	c3.792-0.507,7.278-1.768,10.287-3.801c3.079-2.079,5.632-4.948,7.484-8.6c1.875-3.698,3.009-8.156,3.234-13.328
	c0.138-3.163-0.3-6.034-1.162-8.636C96.071,131.105,94.803,128.804,93.277,126.748z"/>
<linearGradient id="SVGID_12_" gradientUnits="userSpaceOnUse" x1="102.6235" y1="120.5693" x2="167.3041" y2="114.3217">
	<stop  offset="0" style="stop-color:#1D1D1B;stop-opacity:0.5"/>
	<stop  offset="0.038" style="stop-color:#1D1D1B;stop-opacity:0.4837"/>
	<stop  offset="0.4243" style="stop-color:#1D1D1B;stop-opacity:0.3185"/>
	<stop  offset="1" style="stop-color:#1D1D1B;stop-opacity:0"/>
</linearGradient>
<path opacity="0.41" fill="url(#SVGID_12_)" d="M145.644,165.872L142.26,52.896l-0.58-0.566l1.609,111.977
	c0,0-14.1,21.391-16.226,20.769c-3.115-0.911,6.075-141.246,6.075-141.246l-1.042-1.037c-0.393-0.324-0.864-0.506-1.344-0.6
	l-7.468,149.911l0,0l-0.106,2.138l2.634-3.326l0,0L145.644,165.872z"/>
<linearGradient id="SVGID_13_" gradientUnits="userSpaceOnUse" x1="114.0503" y1="46.2642" x2="106.5798" y2="57.6718">
	<stop  offset="0" style="stop-color:#000000;stop-opacity:0"/>
	<stop  offset="1" style="stop-color:#000000;stop-opacity:0.4"/>
</linearGradient>
<path fill="url(#SVGID_13_)" d="M107.319,48.772c-1.194,4.733-2.739,9.142-3.801,11.76c-0.66,1.623,0.073,3.121,1.636,3.345
	c1.562,0.225,3.364-0.909,4.024-2.532c0.112-0.276,2.764-6.84,4.52-14.46c0.007-0.032,0.013-0.062,0.021-0.095L107.319,48.772z"/>
<linearGradient id="SVGID_14_" gradientUnits="userSpaceOnUse" x1="68.8818" y1="60.2661" x2="62.5221" y2="67.8373">
	<stop  offset="0" style="stop-color:#000000;stop-opacity:0"/>
	<stop  offset="1" style="stop-color:#000000;stop-opacity:0.4"/>
</linearGradient>
<path fill="url(#SVGID_14_)" d="M62.152,62.758c-1.408,3.01-2.82,5.634-3.85,7.382c-0.891,1.508-0.386,3.097,1.128,3.549
	c1.512,0.452,3.461-0.406,4.352-1.915c0.134-0.228,2.98-5.075,5.616-11.26L62.152,62.758z"/>
<linearGradient id="SVGID_15_" gradientUnits="userSpaceOnUse" x1="148.2251" y1="182.1123" x2="150.7274" y2="191.6839">
	<stop  offset="0" style="stop-color:#000000;stop-opacity:0"/>
	<stop  offset="1" style="stop-color:#000000;stop-opacity:0.4"/>
</linearGradient>
<polygon opacity="0.32" fill="url(#SVGID_15_)" points="123.209,194.238 145.635,165.874 176.566,182.705 "/>
<linearGradient id="SVGID_16_" gradientUnits="userSpaceOnUse" x1="144.9111" y1="167.043" x2="150.6888" y2="192.0006">
	<stop  offset="0" style="stop-color:#FFFFFF;stop-opacity:0.5"/>
	<stop  offset="0.0896" style="stop-color:#FFFFFF;stop-opacity:0.4552"/>
	<stop  offset="1" style="stop-color:#FFFFFF;stop-opacity:0"/>
</linearGradient>
<polygon opacity="0.19" fill="url(#SVGID_16_)" points="123.18,194.25 145.357,165.884 176.566,182.705 "/>
<linearGradient id="SVGID_17_" gradientUnits="userSpaceOnUse" x1="142.6562" y1="169.8154" x2="152.7808" y2="195.9965">
	<stop  offset="0" style="stop-color:#000000;stop-opacity:0"/>
	<stop  offset="1" style="stop-color:#000000;stop-opacity:0.4"/>
</linearGradient>
<polygon opacity="0.19" fill="url(#SVGID_17_)" points="123.18,194.25 145.357,165.884 176.566,182.705 "/>
<linearGradient id="SVGID_18_" gradientUnits="userSpaceOnUse" x1="132.0459" y1="61.5669" x2="67.7906" y2="134.113">
	<stop  offset="0" style="stop-color:#FFFFFF;stop-opacity:0.5"/>
	<stop  offset="1" style="stop-color:#FFFFFF;stop-opacity:0"/>
</linearGradient>
<path opacity="0.6" fill="url(#SVGID_18_)" d="M101.395,115.033c11.6,15.745,19.368,32.739,23.276,49.25l6.082-122.09
	c-1.085-0.213-2.193,0.021-2.462,0.085L43.521,68.527c0,0-0.812,0.231-1.758,0.582C63.192,76.529,84.704,92.376,101.395,115.033z"/>
<linearGradient id="SVGID_19_" gradientUnits="userSpaceOnUse" x1="121.4692" y1="116.6484" x2="192.7731" y2="118.8292">
	<stop  offset="0" style="stop-color:#1D1D1B;stop-opacity:0.5"/>
	<stop  offset="0.0896" style="stop-color:#1D1D1B;stop-opacity:0.4552"/>
	<stop  offset="1" style="stop-color:#1D1D1B;stop-opacity:0"/>
</linearGradient>
<path fill="url(#SVGID_19_)" d="M157.121,54.331c0.473,0.411,0.53,1.031,0.53,1.031l18.637,127.343l-30.645-16.833L142.26,52.904
	l13.699,1.021C155.959,53.925,156.648,53.919,157.121,54.331z"/>
<linearGradient id="SVGID_20_" gradientUnits="userSpaceOnUse" x1="174.9316" y1="59.7578" x2="169.4055" y2="80.2447">
	<stop  offset="0" style="stop-color:#FFFFFF;stop-opacity:0.4"/>
	<stop  offset="1" style="stop-color:#FFFFFF;stop-opacity:0"/>
</linearGradient>
<path fill="url(#SVGID_20_)" d="M154.874,54.607c0,0,0.635,0.05,1.108,0.46c0.473,0.411,0.584,0.977,0.584,0.977l18.336,125.899
	l1.386,0.762L157.651,55.362c0,0-0.057-0.621-0.53-1.031c-0.473-0.411-1.162-0.406-1.162-0.406l-13.699-1.021L154.874,54.607z"/>
<linearGradient id="SVGID_21_" gradientUnits="userSpaceOnUse" x1="69.2104" y1="192.8828" x2="74.0236" y2="168.3297">
	<stop  offset="0" style="stop-color:#1D1D1B;stop-opacity:0.5"/>
	<stop  offset="0.0896" style="stop-color:#1D1D1B;stop-opacity:0.4552"/>
	<stop  offset="1" style="stop-color:#1D1D1B;stop-opacity:0"/>
</linearGradient>
<polygon fill="url(#SVGID_21_)" points="24.808,175.812 123.179,194.241 128.021,89.954 35.016,90.654 "/>
<ellipse transform="matrix(-0.3435 0.9392 -0.9392 -0.3435 148.7896 38.9084)" opacity="0.3" fill="#FFFFFF" cx="60.795" cy="71.461" rx="4.674" ry="3.817"/>
<ellipse transform="matrix(-0.3435 0.9392 -0.9392 -0.3435 147.7444 37.4134)" opacity="0.89" cx="60.795" cy="70.349" rx="4.674" ry="3.817"/>
<linearGradient id="SVGID_22_" gradientUnits="userSpaceOnUse" x1="112.0161" y1="117.6035" x2="176.9419" y2="120.2677">
	<stop  offset="0" style="stop-color:#1D1D1B;stop-opacity:0.5"/>
	<stop  offset="1" style="stop-color:#1D1D1B;stop-opacity:0"/>
</linearGradient>
<path fill="url(#SVGID_22_)" d="M142.26,52.896l-10.164-10.104c-0.393-0.324-0.864-0.506-1.344-0.6l-7.574,152.048l22.465-28.369
	L142.26,52.896z"/>
<linearGradient id="SVGID_23_" gradientUnits="userSpaceOnUse" x1="89.23" y1="42.6987" x2="78.1038" y2="164.3458">
	<stop  offset="0" style="stop-color:#FFFFFF;stop-opacity:0.5"/>
	<stop  offset="1" style="stop-color:#FFFFFF;stop-opacity:0"/>
</linearGradient>
<path fill="url(#SVGID_23_)" d="M128.291,42.278L43.521,68.527c0,0-3.637,1.033-4.492,2.058c-0.063,0.076-0.123,0.163-0.18,0.255
	l85.492-23.639c0.698-0.159,2.441-0.814,2.175,4.139l-5.182,142.556l1.846,0.345l7.574-152.048
	C129.668,41.98,128.56,42.213,128.291,42.278z"/>
<linearGradient id="SVGID_24_" gradientUnits="userSpaceOnUse" x1="89.23" y1="42.6987" x2="78.1038" y2="164.3458">
	<stop  offset="0" style="stop-color:#FFFFFF;stop-opacity:0.5"/>
	<stop  offset="1" style="stop-color:#FFFFFF;stop-opacity:0"/>
</linearGradient>
<path fill="url(#SVGID_24_)" d="M128.291,42.278L43.521,68.527c0,0-3.637,1.033-4.492,2.058c-0.063,0.076-0.123,0.163-0.18,0.255
	l19.807-5.477l68.077-21.08c0.268-0.064,1.375-0.298,2.462-0.085l-7.461,149.772l1.446,0.271l7.574-152.048
	C129.668,41.98,128.56,42.213,128.291,42.278z"/>
<linearGradient id="SVGID_25_" gradientUnits="userSpaceOnUse" x1="145.522" y1="167.2832" x2="123.4134" y2="202.2296">
	<stop  offset="0" style="stop-color:#FFFFFF;stop-opacity:0.5"/>
	<stop  offset="0.0896" style="stop-color:#FFFFFF;stop-opacity:0.4552"/>
	<stop  offset="1" style="stop-color:#FFFFFF;stop-opacity:0"/>
</linearGradient>
<path opacity="0.32" fill="url(#SVGID_25_)" d="M150.141,168.338l-4.506-2.464l-22.456,28.365l1.243-0.27
	c0,0,19.822-25.463,21.612-26.294C147.231,167.12,150.141,168.338,150.141,168.338z"/>
<linearGradient id="SVGID_26_" gradientUnits="userSpaceOnUse" x1="138.6802" y1="164.2148" x2="137.138" y2="169.9319">
	<stop  offset="0" style="stop-color:#000000;stop-opacity:0"/>
	<stop  offset="1" style="stop-color:#000000;stop-opacity:0.4"/>
</linearGradient>
<path opacity="0.57" fill="url(#SVGID_26_)" d="M123.179,194.241l22.457-28.367C145.635,165.874,131.375,181.376,123.179,194.241z"
	/>
<linearGradient id="SVGID_27_" gradientUnits="userSpaceOnUse" x1="162.1543" y1="170.3809" x2="161.774" y2="171.7909">
	<stop  offset="0" style="stop-color:#000000;stop-opacity:0"/>
	<stop  offset="1" style="stop-color:#000000;stop-opacity:0.4"/>
</linearGradient>
<path opacity="0.46" fill="url(#SVGID_27_)" d="M176.566,182.705l-30.931-16.831C145.635,165.874,149.167,166.471,176.566,182.705z"
	/>
<ellipse transform="matrix(-0.3435 0.9392 -0.9392 -0.3435 199.4039 -17.0977)" opacity="0.3" fill="#FFFFFF" cx="105.678" cy="61.15" rx="4.674" ry="3.817"/>
<ellipse transform="matrix(-0.3435 0.9392 -0.9392 -0.3435 198.3604 -18.5907)" opacity="0.89" cx="105.678" cy="60.037" rx="4.674" ry="3.817"/>
<path fill="#595961" d="M60.607,73.707c-0.141,0-0.283-0.01-0.427-0.031c-1.622-0.234-2.747-1.736-2.514-3.357
	c0.228-1.587,5.851-38.964,29.268-47.465c5.91-2.146,10.85-1.663,14.681,1.434c4.605,3.725,7.145,11.078,7.549,21.856
	c0.286,7.62-0.607,14.185-0.646,14.46c-0.225,1.623-1.723,2.757-3.346,2.532c-1.624-0.224-2.756-1.722-2.532-3.345
	c0.932-6.771,1.892-25.515-4.76-30.89c-2.13-1.721-5.049-1.874-8.922-0.469C68.887,35.718,63.591,70.81,63.54,71.164
	C63.326,72.642,62.058,73.707,60.607,73.707z"/>
<path opacity="0.46" fill="#B2B2C2" d="M100.544,24.411c-3.479-2.813-8.111-3.247-13.601-1.253
	c-9.514,3.453-17.473,12.653-23.018,26.604c-4.108,10.334-5.473,19.583-5.529,19.973c-0.071,0.49,0.054,0.979,0.352,1.375
	c0.296,0.396,0.73,0.654,1.217,0.724c0.09,0.013,0.18,0.02,0.269,0.02c0.915,0,1.703-0.683,1.834-1.59
	c0.052-0.36,5.431-36.1,26.141-43.619c4.19-1.521,7.58-1.309,10.002,0.65c7.068,5.714,6.122,24.969,5.162,31.907
	c-0.14,1.012,0.569,1.951,1.585,2.091c1.022,0.138,1.951-0.589,2.088-1.583C107.199,58.607,110.668,32.598,100.544,24.411z"/>
<path opacity="0.81" fill="#B2B2C2" d="M60.234,70.74c-0.053,0-0.106-0.003-0.16-0.011c-0.608-0.087-1.031-0.651-0.943-1.26
	c0.055-0.384,1.398-9.524,5.483-19.804c5.465-13.749,13.273-22.802,22.582-26.181c5.257-1.91,9.591-1.528,12.881,1.133
	c9.803,7.927,6.384,33.534,6.234,34.62c-0.084,0.608-0.645,1.032-1.254,0.95c-0.609-0.084-1.034-0.646-0.95-1.255
	c0.035-0.254,3.401-25.446-5.429-32.585c-2.641-2.136-6.249-2.395-10.722-0.771c-21.128,7.67-26.57,43.846-26.622,44.21
	C61.254,70.34,60.778,70.74,60.234,70.74z"/>
<path opacity="0.42" fill="#595961" d="M73.351,42.067c1.106-1.481,2.134-3.018,3.087-4.584c-0.403,0.522-3.29,5.735-9.3,4.935
	C67.138,42.418,70.59,43.513,73.351,42.067z"/>
<path opacity="0.42" fill="#595961" d="M70.008,48.53c0.919-1.604,1.754-3.253,2.511-4.923c-0.337,0.567-2.282,5.979-8.636,6.021
	C63.883,49.627,67.441,50.299,70.008,48.53z"/>
<path opacity="0.42" fill="#595961" d="M67.433,55.058c0.761-1.685,1.435-3.406,2.03-5.141c-0.282,0.597-1.381,6.086-8.022,6.819
	C61.44,56.736,65.047,57.064,67.433,55.058z"/>
<path opacity="0.62" fill="#595961" d="M107.373,35.649c-0.479-1.785-1.049-3.544-1.689-5.262c0.16,0.64,2.202,6.271-1.882,10.359
	C103.802,40.746,106.799,38.714,107.373,35.649z"/>
<path opacity="0.62" fill="#595961" d="M103.479,26.595c-1.351-1.262-2.766-2.452-4.218-3.571c0.475,0.458,5.188,4.154,3.886,9.785
	C103.147,32.809,104.614,29.499,103.479,26.595z"/>
<path opacity="0.62" fill="#595961" d="M108.383,44.81c-0.128-1.844-0.353-3.68-0.652-5.488c0.034,0.659,0.964,6.576-3.826,9.809
	C103.905,49.13,107.235,47.708,108.383,44.81z"/>
<path opacity="0.62" fill="#595961" d="M108.877,54.153c0.103-1.845,0.11-3.694,0.039-5.526c-0.048,0.658,0.134,6.645-5.022,9.253
	C103.893,57.88,107.375,56.886,108.877,54.153z"/>
<path opacity="0.42" fill="#595961" d="M65.148,62.406c0.558-1.762,1.025-3.551,1.412-5.344c-0.21,0.625-1.149,6.324-7.166,7.714
	C59.395,64.776,63.014,64.68,65.148,62.406z"/>
<path opacity="0.42" fill="#595961" d="M77.228,36.594c1.379-1.231,2.693-2.533,3.939-3.877c-0.5,0.431-4.504,4.488-10.097,2.982
	C71.07,35.7,74.233,37.461,77.228,36.594z"/>
<path opacity="0.42" fill="#595961" d="M81.742,32.049c1.572-0.974,3.09-2.028,4.55-3.137c-0.566,0.338-5.213,3.642-10.461,1.191
	C75.832,30.103,78.643,32.385,81.742,32.049z"/>
<path opacity="0.62" fill="#595961" d="M87.766,28.709c1.782-0.493,3.536-1.078,5.249-1.731c-0.638,0.165-6.026,2.029-10.373-1.798
	C82.642,25.18,84.697,28.16,87.766,28.709z"/>
<path opacity="0.62" fill="#595961" d="M92.943,26.914c1.389,0.202,2.787,0.331,4.177,0.4c-0.495-0.081-4.809-0.431-6.661-4.418
	C90.459,22.896,90.978,25.595,92.943,26.914z"/>
<path opacity="0.62" fill="#595961" d="M98.345,29.097c0.851,1.117,1.757,2.188,2.701,3.21c-0.297-0.404-3.13-3.674-1.659-7.818
	C99.387,24.489,97.866,26.779,98.345,29.097z"/>
<linearGradient id="SVGID_28_" gradientUnits="userSpaceOnUse" x1="91.5908" y1="23.8979" x2="81.7745" y2="65.0741">
	<stop  offset="0" style="stop-color:#FFFFFF;stop-opacity:0.65"/>
	<stop  offset="1" style="stop-color:#FFFFFF;stop-opacity:0"/>
</linearGradient>
<path fill="url(#SVGID_28_)" d="M105.23,58.632c0.149-1.073,3.527-26.38-6.032-34.111c-1.808-1.462-3.976-2.204-6.442-2.204
	c-1.793,0-3.778,0.391-5.899,1.161c-9.155,3.324-16.85,12.267-22.255,25.863c-4.051,10.193-5.395,19.296-5.45,19.678
	c-0.043,0.303,0.168,0.586,0.472,0.63c0.029,0.004,0.055,0.006,0.081,0.006c0.274,0,0.51-0.206,0.549-0.477
	c0.053-0.369,5.55-36.874,26.982-44.654c4.647-1.688,8.478-1.39,11.262,0.861c9.08,7.341,5.666,32.838,5.63,33.095
	c-0.042,0.303,0.171,0.584,0.475,0.627c0.024,0.002,0.049,0.004,0.075,0.004C104.956,59.112,105.193,58.906,105.23,58.632z"/>
<g>
	<linearGradient id="SVGID_29_" gradientUnits="userSpaceOnUse" x1="101.5654" y1="36.6313" x2="106.2475" y2="68.2647">
		<stop  offset="0" style="stop-color:#000000;stop-opacity:0"/>
		<stop  offset="1" style="stop-color:#000000;stop-opacity:0.4"/>
	</linearGradient>
	<path fill="url(#SVGID_29_)" d="M109.165,46.144c-0.405-10.778-2.944-18.131-7.549-21.856c-2.498-2.02-5.471-2.92-8.874-2.712
		c2.637,0.169,4.986,1.069,7.02,2.712c4.604,3.725,7.145,11.078,7.548,21.856c0.286,7.62-0.607,14.185-0.644,14.46
		c-0.161,1.159-0.972,2.065-2.014,2.409c0.168,0.055,0.341,0.098,0.521,0.123c1.623,0.225,3.121-0.909,3.346-2.532
		C108.558,60.328,109.451,53.764,109.165,46.144z"/>
</g>
<linearGradient id="SVGID_30_" gradientUnits="userSpaceOnUse" x1="71.0713" y1="58.0337" x2="87.4866" y2="23.587">
	<stop  offset="0" style="stop-color:#000000;stop-opacity:0"/>
	<stop  offset="1" style="stop-color:#000000;stop-opacity:0.4"/>
</linearGradient>
<path fill="url(#SVGID_30_)" d="M87.105,28.432C67.033,35.718,61.737,70.81,61.686,71.164c-0.167,1.152-0.975,2.05-2.009,2.392
	c0.162,0.053,0.33,0.096,0.504,0.121c0.144,0.021,0.286,0.031,0.427,0.031c1.451,0,2.719-1.065,2.933-2.543
	c0.051-0.354,5.347-35.445,25.419-42.732c1.355-0.492,2.591-0.789,3.719-0.898C91.093,27.356,89.246,27.654,87.105,28.432z"/>
<g opacity="0.45">
	<linearGradient id="SVGID_31_" gradientUnits="userSpaceOnUse" x1="59.7266" y1="57.3623" x2="60.7793" y2="69.4295">
		<stop  offset="0" style="stop-color:#000000;stop-opacity:0"/>
		<stop  offset="1" style="stop-color:#000000;stop-opacity:0.4"/>
	</linearGradient>
	<path fill="url(#SVGID_31_)" d="M60.302,69.547c-1.021-0.372-1.747-1.232-2.094-2.309c-0.341,1.727-0.507,2.834-0.542,3.081
		c-0.233,1.621,0.892,3.124,2.514,3.357c0.144,0.021,0.286,0.031,0.427,0.031c1.451,0,2.719-1.065,2.933-2.543
		c0.008-0.055,0.144-0.957,0.443-2.466C62.912,69.63,61.539,70,60.302,69.547z"/>
	<linearGradient id="SVGID_32_" gradientUnits="userSpaceOnUse" x1="105.2803" y1="53.3853" x2="106.3332" y2="65.4542">
		<stop  offset="0" style="stop-color:#000000;stop-opacity:0"/>
		<stop  offset="1" style="stop-color:#000000;stop-opacity:0.4"/>
	</linearGradient>
	<path fill="url(#SVGID_32_)" d="M104.872,58.326c-0.843-0.307-1.486-0.948-1.88-1.769c-0.106,1.245-0.228,2.344-0.351,3.233
		c-0.224,1.623,0.909,3.121,2.532,3.345c1.623,0.225,3.121-0.909,3.346-2.532c0.017-0.119,0.192-1.408,0.363-3.443
		C107.773,58.321,106.24,58.827,104.872,58.326z"/>
</g>
<g>
	<path fill="#FFFFFF" d="M206.941,141.628c3.742,1.945,10.477,4.639,16.912,4.49c5.836,0,8.979-3.143,8.979-7.035
		c0-3.74-2.245-6.285-8.531-9.877c-7.782-4.49-13.619-10.775-13.619-19.006c0-14.518,12.421-24.844,30.53-24.844
		c7.932,0,14.068,1.497,17.36,3.442l-4.789,14.667c-2.843-1.347-7.483-2.844-12.871-2.844c-5.837,0-9.578,2.694-9.578,6.884
		c0,3.293,2.694,5.688,7.932,8.531c8.082,4.639,14.816,10.926,14.816,19.756c0,16.461-13.319,25.74-31.877,25.59
		c-8.531-0.148-16.463-2.395-20.354-5.088L206.941,141.628z"/>
	<path fill="#FFFFFF" d="M258.274,160.036l20.054-105.509h20.653l-7.932,41.455l0.3,0.149c5.537-6.585,12.721-10.925,21.85-10.925
		c10.775,0,16.912,7.034,16.912,18.707c0,3.592-0.6,8.98-1.497,13.471l-8.081,42.652h-20.653l7.782-41.307
		c0.599-2.844,0.898-6.285,0.898-9.129c0-4.49-1.797-7.633-6.436-7.633c-6.585,0-13.619,8.381-16.313,22l-6.884,36.068H258.274z"/>
	<path fill="#FFFFFF" d="M404.791,114.091c0,25.592-16.463,47.441-40.857,47.441c-18.557,0-28.434-12.871-28.434-28.885
		c0-24.992,16.461-47.441,41.305-47.441C396.111,85.207,404.791,99.274,404.791,114.091z M356.602,132.2
		c0,7.482,2.992,13.469,10.027,13.469c10.924,0,17.061-19.455,17.061-32.178c0-6.135-2.395-12.421-9.729-12.421
		C362.736,101.07,356.602,120.376,356.602,132.2z"/>
	<path fill="#FFFFFF" d="M399.854,189.368l14.367-75.576c1.646-8.531,3.293-19.905,4.191-27.388h18.258l-1.197,11.075h0.299
		c5.537-7.782,13.619-12.272,21.85-12.272c15.115,0,21.252,12.422,21.252,26.339c0,25.143-15.863,49.986-40.107,49.986
		c-5.09,0-9.729-1.197-12.123-2.693h-0.449l-5.688,30.529H399.854z M429.336,142.976c2.246,1.795,4.789,2.992,8.531,2.992
		c11.523,0,19.455-19.006,19.455-32.326c0-5.537-1.945-11.374-8.23-11.374c-7.184,0-13.918,8.53-16.312,21.401L429.336,142.976z"/>
	<path fill="#FFFFFF" d="M479.473,160.036l13.92-73.183h20.801l-14.066,73.183H479.473z M506.262,77.874
		c-5.836,0-9.727-4.19-9.727-10.327c0-6.735,5.238-11.973,11.822-11.973c6.285,0,10.326,4.34,10.326,10.327
		c-0.148,7.632-5.688,11.973-12.121,11.973H506.262z"/>
	<path fill="#FFFFFF" d="M518.084,160.036l10.926-57.769h-9.578l2.992-15.564h9.578l0.6-3.442
		c1.646-8.681,4.938-17.36,11.973-23.347c5.537-4.789,12.869-6.885,20.203-6.885c5.088,0,8.83,0.749,11.225,1.796l-4.041,16.163
		c-1.795-0.599-3.891-1.047-6.584-1.047c-6.885,0-11.076,6.286-12.273,13.32l-0.748,3.442h14.367l-2.844,15.564h-14.217
		l-10.926,57.769H518.084z"/>
	<path fill="#FFFFFF" d="M592.314,86.853l3.293,32.925c0.898,7.332,1.496,12.57,1.797,17.359h0.299
		c1.646-4.938,3.143-9.578,6.137-17.51l12.57-32.775h21.551l-25.293,54.175c-8.979,18.559-17.658,32.178-27.088,41.008
		c-7.332,6.883-16.014,10.326-20.203,11.225l-5.688-17.512c3.443-1.197,7.783-2.992,11.674-5.836
		c4.789-3.293,8.83-7.781,11.225-12.422c0.598-1.047,0.748-1.945,0.449-3.441l-12.422-67.197H592.314z"/>
</g>
<g>
	<path fill="#FFFFFF" d="M708.386,155.78c-5.473,3.192-14.439,5.775-24.319,5.775c-19.455,0-27.967-13.223-27.967-29.486
		c0-22.19,16.415-47.27,40.126-47.27c13.983,0,21.583,8.359,21.583,18.847c0,19.304-21.734,24.471-48.941,24.016
		c-0.608,3.191-0.152,10.031,1.52,13.982c2.889,6.536,8.816,9.88,16.416,9.88c8.663,0,15.199-2.735,19.759-5.168L708.386,155.78z
		 M694.402,94.679c-12.008,0-20.976,11.704-24.016,23.255c19.76,0.151,35.263-2.433,35.263-13.832
		C705.649,98.023,701.09,94.679,694.402,94.679z"/>
	<path fill="#FFFFFF" d="M740.913,86.472l7.144,16.111c1.976,4.712,3.496,8.359,4.864,11.703h0.456
		c2.888-4.104,4.407-6.535,8.055-11.095l13.528-16.72h14.591l-31.007,35.87l17.327,37.694h-13.679l-7.448-16.567
		c-2.432-5.472-3.495-8.359-5.319-13.071h-0.304c-2.28,3.496-4.408,6.84-7.6,11.247l-14.896,18.392h-14.592l32.223-37.847
		l-17.023-35.718H740.913z"/>
	<path fill="#FFFFFF" d="M780.129,190.131l14.744-77.517c1.52-8.815,3.039-18.695,4.104-26.143h11.552l-2.128,13.831h0.304
		c6.688-9.575,16.415-15.503,26.446-15.503c15.96,0,22.647,13.071,22.647,26.599c0,25.839-18.543,50.31-43.015,50.31
		c-7.903,0-13.071-1.672-15.959-3.344h-0.304l-5.928,31.767H780.129z M800.801,147.725c3.191,2.584,8.055,4.104,13.982,4.104
		c16.264,0,29.943-20.215,29.943-39.518c0-7.752-3.496-17.023-14.136-17.023c-9.88,0-22.343,11.399-26.143,31.919L800.801,147.725z"
		/>
	<path fill="#FFFFFF" d="M917.685,155.78c-5.473,3.192-14.439,5.775-24.319,5.775c-19.455,0-27.967-13.223-27.967-29.486
		c0-22.19,16.415-47.27,40.126-47.27c13.983,0,21.583,8.359,21.583,18.847c0,19.304-21.734,24.471-48.941,24.016
		c-0.608,3.191-0.152,10.031,1.52,13.982c2.889,6.536,8.816,9.88,16.416,9.88c8.663,0,15.199-2.735,19.759-5.168L917.685,155.78z
		 M903.701,94.679c-12.008,0-20.976,11.704-24.016,23.255c19.76,0.151,35.263-2.433,35.263-13.832
		C914.948,98.023,910.389,94.679,903.701,94.679z"/>
	<path fill="#FFFFFF" d="M931.213,160.036l8.968-47.422c1.823-9.575,3.04-19.303,3.8-26.143h11.096
		c-0.608,5.167-1.217,10.335-1.977,15.959h0.456c4.712-10.031,12.615-17.631,22.495-17.631c1.063,0,2.584,0.152,3.496,0.304
		l-2.433,12.463c-0.76-0.152-1.976-0.304-3.344-0.304c-10.943,0-20.671,13.223-23.862,30.399l-6.08,32.374H931.213z"/>
	<path fill="#FFFFFF" d="M1014.2,66.712l-3.8,19.759h17.631l-1.976,9.879h-17.631l-6.84,35.718
		c-0.76,4.104-1.368,7.903-1.368,11.855c0,4.408,2.128,6.992,6.991,6.992c2.128,0,4.256-0.152,5.928-0.456l-0.607,9.879
		c-2.28,0.912-6.08,1.368-9.728,1.368c-11.248,0-15.503-6.84-15.503-14.287c0-4.256,0.455-8.512,1.52-13.831l7.296-37.239h-10.64
		l1.976-9.879h10.487l3.192-16.567L1014.2,66.712z"/>
	<path fill="#FFFFFF" d="M1027.119,147.269c3.496,2.128,9.88,4.56,15.808,4.56c8.512,0,13.983-5.472,13.983-12.007
		c0-5.776-2.584-9.271-10.184-13.527c-8.512-4.712-13.224-11.248-13.224-18.695c0-12.919,11.096-22.799,26.6-22.799
		c6.688,0,12.615,1.824,15.351,3.648l-3.496,9.575c-2.583-1.52-7.295-3.344-12.767-3.344c-7.6,0-13.071,4.712-13.071,11.095
		c0,5.32,3.495,8.664,10.031,12.312c8.207,4.712,13.831,11.096,13.831,19.304c0,15.503-12.615,24.166-28.118,24.166
		c-7.904,0-14.896-2.432-18.239-5.016L1027.119,147.269z"/>
</g>
<g id="cWijya_1_">
	
		<image overflow="visible" width="101" height="10" id="cWijya" xlink:href="F03FE8D652899525.jpg"  transform="matrix(0.24 0 0 0.24 1647.9492 -323.2227)">
	</image>
</g>
</svg>
